<svg width="269" height="54" viewBox="0 0 269 54" fill="none" xmlns="http://www.w3.org/2000/svg">
<path d="M0.708501 4.6879C15.4108 4.45342 30.1365 4.63201 44.8408 4.63151L123.182 4.63858L265.697 4.61474C266.147 4.61788 266.746 4.60835 267.143 4.84041C267.363 4.96872 267.366 5.05338 267.429 5.28884C267.376 5.50995 267.301 5.67874 267.139 5.83938C266.918 6.05874 266.652 6.21494 266.336 6.23535C265.073 6.31669 263.705 6.17833 262.432 6.17066L253.661 6.16384L224.712 6.16179L165.324 6.16122L145.745 6.1606C142.227 6.16003 138.659 6.27962 135.147 6.11393C134.932 20.305 135.182 34.4987 135.023 48.6901C134.477 48.7087 133.899 48.6275 133.353 48.5899L133.368 20.0224C133.368 15.4138 133.152 10.7173 133.375 6.11882C130.198 6.29151 126.929 6.15827 123.745 6.15969L105.36 6.16208L49.6062 6.16259L16.071 6.16111L6.33033 6.15986C4.54023 6.15952 2.58573 6.30731 0.820657 6.04748C0.628444 5.69671 0.707119 5.08689 0.708501 4.6879Z" fill="#8A2A2B"/>
<path d="M33.1476 37.668C35.6775 37.746 38.2129 37.6183 40.7467 37.7124C40.662 40.717 40.737 43.7315 40.7823 46.7364L42.3297 46.8477C42.4935 48.2166 42.4064 49.6099 42.3692 50.9846C41.7901 51.0136 41.1985 50.9513 40.62 50.9166C40.6328 50.2298 40.8116 48.8801 40.4747 48.2765L40.1297 48.185L32.6822 48.1509C32.6893 49.1046 32.7114 50.0582 32.7482 51.0112C31.9633 51.0154 31.1857 50.9577 30.4034 50.8997C30.3929 49.889 30.3319 48.8607 30.3589 47.8529C30.4 46.3185 31.0731 47.3855 31.7389 46.715C33.2858 45.1567 33.1677 39.8351 33.1476 37.668ZM38.1392 46.76L38.6288 46.8076C38.9771 46.4589 38.8851 45.7784 38.8844 45.2895C38.882 43.3588 38.8047 41.4222 38.8348 39.4926C37.5613 39.546 36.2435 39.6261 34.9718 39.5169C35.0104 41.8224 34.8051 44.6509 33.8127 46.7551L38.1392 46.76Z" fill="#8A2A2B"/>
<path d="M252.002 37.2646C252.969 37.34 254.262 37.6844 255.024 38.2892C257.137 39.9683 256.026 45.6034 256.336 48.1757C255.522 48.187 254.799 48.1316 254.014 47.9055C252.932 48.3465 251.96 48.692 250.772 48.6658C249.155 48.6302 248.133 47.8728 247.059 46.7452L247.123 45.005C247.913 41.1995 253.307 42.5468 254.431 41.3761C254.436 41.2316 254.435 41.0871 254.43 40.9426C254.405 40.3997 254.212 39.8794 253.799 39.5136C253.311 39.0826 252.564 38.9551 251.935 38.9916C250.529 39.0731 249.44 39.8491 248.539 40.8672C248.204 40.5459 247.805 40.2274 247.67 39.7677C247.651 39.419 247.692 39.1618 247.906 38.8762C248.645 37.8892 250.827 37.4299 252.002 37.2646ZM249.797 46.8728C251.047 46.9436 252.621 47.1328 253.631 46.2235C254.282 45.6362 254.399 44.7681 254.437 43.936C254.449 43.6763 254.429 43.4129 254.404 43.1546L254.187 43.0288L254 43.1119C252.638 43.4852 249.917 43.5088 249.135 44.927C249.001 45.17 248.962 45.4196 249.044 45.6869C249.172 46.0977 249.422 46.6268 249.797 46.8728Z" fill="#8A2A2B"/>
<path d="M262.092 37.7153C263.77 37.6118 265.464 37.6669 267.144 37.6822C267.136 41.1863 267.072 44.7006 267.157 48.2035C266.931 48.2071 266.705 48.2081 266.479 48.2065C266.094 48.202 265.77 48.1845 265.491 47.8924C264.931 47.3069 265.197 45.4564 265.211 44.6302C264.626 44.6551 264.027 44.6241 263.441 44.6179C263.126 45.1426 262.708 45.6252 262.335 46.1101C261.723 47.0872 261.024 47.7827 259.919 48.1687C259.448 48.333 259.146 48.3627 258.701 48.1503L258.607 47.8313C258.919 46.6313 260.631 45.3408 261.575 44.5703C260.944 44.3012 260.317 44.0386 259.781 43.6004C259.063 43.0133 258.515 42.2023 258.428 41.2617C258.35 40.4443 258.606 39.6302 259.139 39.0049C259.942 38.0666 260.921 37.801 262.092 37.7153ZM261.837 42.8926L264.77 42.8622L265.082 42.811C265.461 41.9878 265.161 40.4844 265.275 39.5292C263.872 39.5413 262.469 39.5374 261.067 39.5173C260.774 40.1361 260.495 40.7606 260.12 41.335C260.681 41.8557 261.234 42.4237 261.837 42.8926Z" fill="#8A2A2B"/>
<path d="M56.08 39.3571C56.54 38.9719 57.0252 38.5158 57.5655 38.2495C59.4872 37.3029 62.4832 37.5803 64.5681 37.7434C64.5919 40.2584 64.8297 45.7617 64.4896 47.9882C64.1978 48.1809 63.5125 48.172 63.1656 48.1049C63.0837 48.089 63.0035 48.0619 62.9256 48.0319C62.5969 47.3254 62.747 45.334 62.8079 44.5011C62.2011 44.5612 61.6056 44.6179 60.9948 44.6072C60.2248 45.4927 59.117 47.2903 58.2429 47.8996C58.2429 47.465 58.2343 47.0362 58.1996 46.6028C57.9113 46.2572 57.805 46.2753 57.3693 46.1872C57.8027 45.6561 58.2969 45.1247 58.6768 44.556C58.0478 44.2406 57.4029 43.9394 56.7892 43.5956C55.9237 42.0119 55.8425 41.1308 56.08 39.3571ZM59.4008 42.9246C60.3215 42.9201 61.2468 42.897 62.167 42.9152C62.2733 42.9086 62.5838 42.9204 62.6475 42.8523C63.1116 42.3532 62.7664 40.2159 62.7994 39.4908L58.7052 39.5324C58.3134 39.9836 57.8709 40.4365 57.5251 40.9216C58.0808 41.7639 58.5295 42.3765 59.4008 42.9246Z" fill="#8A2A2B"/>
<path d="M22.8336 37.7978C23.6338 39.2596 24.9633 45.1456 25.9278 45.6927C26.3621 45.0867 26.465 43.8632 26.6785 43.1181C26.8945 42.3645 28.1864 38.4633 28.5117 37.9863C29.0676 37.6477 29.6853 37.7696 30.3184 37.8515L30.3855 37.9826C29.8887 40.3188 28.6772 43.0314 27.9019 45.3666C27.1587 47.5741 26.2866 49.656 25.4182 51.8107C24.4175 52.3548 23.4103 52.8859 22.2287 52.6154C21.7641 52.509 21.4977 52.1661 21.2548 51.7828C21.2546 51.7138 21.2324 51.5259 21.2664 51.4748C21.6781 50.858 22.9409 50.8796 23.5968 50.7258C24.1055 50.6065 24.5998 49.3269 24.8903 48.8437C24.2762 47.4833 23.7276 46.0944 23.2465 44.6816C22.5528 42.6656 21.8227 39.5229 20.6021 37.8128C21.3015 37.7007 22.1209 37.7886 22.8336 37.7978Z" fill="#8A2A2B"/>
<path d="M225.47 37.7576C226.096 37.7823 226.696 37.7578 227.32 37.7012C227.28 38.6944 227.004 45.1882 227.436 45.6821C227.946 45.3505 228.356 44.4206 228.636 43.8773C228.64 44.153 228.615 44.4422 228.78 44.6779L229.041 44.6973C229.125 44.6273 229.202 44.5491 229.271 44.4638C229.476 44.2053 229.692 43.5948 229.646 43.2722C229.625 43.1265 229.413 43.0162 229.296 42.9271C230.448 41.2747 231.465 39.5316 232.564 37.8434C233.265 37.8098 233.974 37.7512 234.675 37.7877C234.566 40.3023 234.317 45.8599 234.712 48.1715C234.11 48.135 233.498 48.1201 232.902 48.0245C232.879 45.4145 232.805 42.7922 232.939 40.1848C231.811 41.9454 228.728 47.7592 226.917 48.1492C226.554 48.2274 226.191 48.1623 225.831 48.0959C225.566 47.8981 225.58 47.8454 225.533 47.5223C225.377 46.4412 225.474 45.2538 225.474 44.1604L225.47 37.7576Z" fill="#8A2A2B"/>
<path d="M3.11083 37.9312C4.30657 37.7943 5.47019 37.4004 6.66962 37.2227C7.34354 37.5001 8.03003 37.7424 8.7159 37.9883C8.46731 38.184 8.31808 38.272 7.99005 38.2909L7.94893 38.5019C8.34254 38.9476 8.90027 39.3576 8.97449 39.9493C8.79944 40.0891 8.74882 40.1394 8.52697 40.1663C7.81546 39.6114 6.92827 39.2102 6.13446 38.7806C5.71248 38.9283 5.28162 39.0735 4.87341 39.256C3.49207 39.8738 3.04503 41.3825 2.54665 42.6781C2.87953 44.6291 3.28911 45.5898 4.82852 46.8754C5.19948 46.9028 5.57125 46.9176 5.9432 46.9199C7.39888 46.9232 8.17374 45.9426 9.12127 44.9987C9.53478 45.4533 9.98645 45.8827 10.4187 46.3202C10.109 46.662 9.79588 47.0129 9.45175 47.3205C8.39799 48.2628 7.06811 48.7816 5.64873 48.6965C4.25544 48.613 3.01595 47.9725 2.09553 46.9304C1.02926 45.7232 0.660238 44.2001 0.759381 42.6161C0.884361 40.6191 1.62905 39.2393 3.11083 37.9312Z" fill="#8A2A2B"/>
<path d="M215.929 37.7222C218.425 37.377 221.304 37.6704 223.832 37.7027C223.79 38.3403 223.81 38.9813 223.817 39.6198C222.683 39.5004 221.497 39.5303 220.355 39.4993C220.438 41.5676 220.394 43.6518 220.4 45.7222C220.396 46.555 220.441 47.3689 220.518 48.198L218.555 48.1558L218.546 39.5126C217.644 39.5669 215.85 39.8935 215.099 39.4414C214.875 39.3054 214.715 39.0845 214.656 38.829C214.571 38.4414 214.643 38.1722 214.844 37.8493C215.204 37.7718 215.562 37.7476 215.929 37.7222Z" fill="#8A2A2B"/>
<path d="M11.9431 37.7339C14.6632 37.5408 17.458 37.672 20.185 37.7062L20.135 39.4862C18.8628 39.5024 17.5906 39.5104 16.3183 39.5104C16.2747 41.6226 16.2998 43.739 16.2987 45.8518C16.252 46.6383 16.2905 47.4047 16.343 48.1901C15.7279 48.1901 15.1082 48.1289 14.4945 48.088C14.4466 45.9378 14.6938 41.4924 14.3924 39.6916C13.5079 39.332 12.2165 39.669 11.2406 39.4804C11.0753 39.3142 10.9944 39.2585 10.958 39.0199C10.9102 38.705 11.0531 38.1773 11.2448 37.9213C11.3769 37.7448 11.7278 37.7636 11.9431 37.7339Z" fill="#8A2A2B"/>
<path d="M243.52 38.1242C244.127 37.6843 244.627 37.7558 245.345 37.8258L245.526 38.0093C245.504 39.0735 243.16 41.9841 242.438 42.9041C242.809 43.2559 243.235 43.6056 243.52 44.0321C243.342 44.6853 243.319 45.6769 243.663 46.2842C244.248 47.3136 245.207 47.4468 245.678 48.1044C245.346 48.1318 244.909 48.1986 244.586 48.1221C243.339 47.827 242.055 45.2571 241.401 44.2218C240.596 45.5245 239.701 46.7679 238.813 48.0147C238.727 47.2178 239.04 46.6267 239.036 45.8551C238.841 45.5005 238.715 45.4345 238.372 45.2311C238.992 44.3604 239.639 43.5951 240.41 42.8532C239.041 41.3461 237.892 39.4725 236.699 37.8137L239.067 37.8084C239.632 38.635 240.702 40.9157 241.571 41.2562L241.751 41.001L242.077 41.4628C242.093 41.4625 242.11 41.4625 242.127 41.4618C242.416 41.4499 242.716 41.2528 242.906 41.0437C243.305 40.6067 243.907 39.3256 243.87 38.7191C243.852 38.4055 243.738 38.323 243.52 38.1242Z" fill="#8A2A2B"/>
<path d="M47.7664 43.3599C49.1185 41.8415 49.739 39.5517 51.2876 38.2304C52.0495 37.5803 52.6929 37.7415 53.6292 37.8147C54.0217 41.2462 53.3796 44.7899 53.8687 48.2092L51.9388 48.1478C52.0135 45.3936 51.9793 42.6374 51.8362 39.8858C51.357 40.6876 50.8926 41.6832 50.2619 42.3701C50.0464 42.4297 49.8825 42.4947 49.6978 42.6214C49.3566 42.6284 49.3884 42.579 49.1282 42.8479C48.7495 43.2392 48.4937 43.7297 48.1092 44.1261L47.8832 44.057C47.8127 43.8192 47.7752 43.6079 47.7664 43.3599Z" fill="#8A2A2B"/>
<path d="M44.5517 37.6958L46.3115 37.765C46.3635 40.5812 46.4784 43.4402 46.1488 46.2415C46.6575 45.2588 47.1951 44.3075 47.7663 43.36C47.7751 43.608 47.8126 43.8193 47.8831 44.0572L48.1092 44.1262C48.4937 43.7298 48.7495 43.2393 49.1281 42.8481C49.3884 42.5791 49.3566 42.6285 49.6977 42.6216C49.8825 42.4949 50.0463 42.4298 50.2618 42.3703C49.1577 44.3305 47.8688 46.14 46.643 48.0199C45.9354 48.1057 45.2345 48.2003 44.5203 48.1928L44.5517 37.6958Z" fill="#8A2A2B"/>
<path d="M238.372 45.231C238.715 45.4344 238.841 45.5004 239.036 45.855C239.04 46.6266 238.727 47.2177 238.813 48.0146C238.146 48.0858 237.281 48.2871 236.688 47.9363C236.783 47.1582 237.939 45.977 238.372 45.231Z" fill="#8A2A2B"/>
<path d="M243.52 44.0322C244.004 44.6852 246.086 47.2773 245.989 47.9922L245.678 48.1045C245.207 47.447 244.248 47.3137 243.663 46.2843C243.319 45.6771 243.342 44.6855 243.52 44.0322Z" fill="#8A2A2B"/>
<path d="M57.3692 46.187C57.8048 46.2751 57.9112 46.257 58.1995 46.6027C58.2342 47.0361 58.2427 47.4648 58.2427 47.8995C57.409 48.2763 56.2042 48.1644 55.2993 48.1648C56.0081 47.5288 56.6857 46.8504 57.3692 46.187Z" fill="#8A2A2B"/>
<path d="M243.52 38.124C243.738 38.3229 243.852 38.4054 243.87 38.719C243.907 39.3254 243.305 40.6065 242.906 41.0436C242.716 41.2526 242.416 41.4498 242.127 41.4617C242.11 41.4624 242.093 41.4624 242.077 41.4627L241.751 41.0009C242.071 39.9787 242.913 39.0014 243.52 38.124Z" fill="#8A2A2B"/>
<path d="M8.71594 37.9883C9.19149 38.3073 9.75872 38.6233 9.87639 39.2318C9.92763 39.4965 9.88873 39.894 9.72966 40.1174C9.52561 40.4038 9.36575 40.4572 9.04488 40.56C8.83298 40.4595 8.63933 40.3865 8.52701 40.1663C8.74887 40.1394 8.79948 40.0891 8.97453 39.9493C8.90031 39.3575 8.34258 38.9476 7.94897 38.5019L7.99009 38.2909C8.31812 38.2719 8.46735 38.184 8.71594 37.9883Z" fill="#8A2A2B"/>
<path d="M229.296 42.9272C229.413 43.0164 229.625 43.1266 229.646 43.2723C229.692 43.595 229.476 44.2055 229.271 44.464C229.202 44.5492 229.125 44.6275 229.041 44.6975L228.78 44.6781C228.615 44.4424 228.64 44.1532 228.636 43.8775C228.896 43.6165 229.095 43.2374 229.296 42.9272Z" fill="#8A2A2B"/>
</svg>
