<svg width="269" height="49" viewBox="0 0 269 49" fill="none" xmlns="http://www.w3.org/2000/svg">
<g clip-path="url(#clip0_67_8566)">
<path d="M110.672 21.8428H88.6705V11.1293H118.227V5.73096H83.5229V11.1293V43.1038H110.589C116.65 43.1038 121.382 38.3699 121.382 32.3072C121.382 27.3242 117.397 21.8428 110.672 21.8428ZM110.589 37.7055H88.5875V26.9089H110.589C113.578 26.9089 115.986 29.3174 115.986 32.3072C115.986 35.2971 113.578 37.7055 110.589 37.7055Z" fill="#8A2A2B"/>
<path d="M79.9528 24.4175C79.9528 29.5666 77.8772 34.2175 74.4732 37.6225C71.0692 41.0276 66.4198 43.1039 61.2723 43.1039H39.4368V37.7056H61.2723C67.7482 37.7056 73.1448 33.0547 74.3071 26.909H45.6636V21.7598H74.3071C73.0618 15.6971 67.7482 11.0463 61.2723 11.0463H39.4368V5.64795H61.2723C71.5673 5.731 79.9528 14.1192 79.9528 24.4175Z" fill="#8A2A2B"/>
<path d="M32.8778 23.9192C34.7043 22.009 35.8667 19.3514 35.8667 16.4446C35.8667 10.4649 31.0512 5.64795 25.1565 5.64795H0V43.0208H26.0698C32.0475 43.0208 36.863 38.2039 36.863 32.2242C36.863 28.9022 35.2855 25.9124 32.8778 23.9192ZM25.0735 11.1293C27.9793 11.1293 30.387 13.5378 30.387 16.4446C30.387 19.3514 27.9793 21.7598 25.0735 21.7598H5.14753V11.1293H25.0735ZM26.0698 37.7056H5.14753V26.909H26.0698C29.0586 26.909 31.4664 29.3175 31.4664 32.3073C31.4664 35.2971 29.0586 37.7056 26.0698 37.7056Z" fill="#8A2A2B"/>
<path d="M148.034 43.1039H153.597V37.2903H194.694V5.64795H148.034V43.1039ZM153.597 11.1293H189.131V31.809H153.597V11.1293Z" fill="#8A2A2B"/>
<path d="M200.007 37.2903H231.64V43.1039H237.119V37.2903H268.752V5.64795H199.924V37.2903H200.007ZM237.202 11.1293H263.355V31.809H237.202V11.1293ZM205.487 11.1293H231.64V31.809H205.487V11.1293Z" fill="#8A2A2B"/>
<path d="M137.322 0H131.759V48.917H137.322V0Z" fill="#8A2A2B"/>
</g>
<defs>
<clipPath id="clip0_67_8566">
<rect width="269" height="49" fill="white"/>
</clipPath>
</defs>
</svg>
