<svg width="242" height="73" viewBox="0 0 242 73" fill="none" xmlns="http://www.w3.org/2000/svg">
<path d="M0 44.7271H18.2973V71.834H5.27014C2.35967 71.834 0 69.4749 0 66.5639V44.7271Z" fill="#8A2A2B"/>
<path d="M63.0237 44.7271H44.7263V71.834H57.7535C60.664 71.834 63.0237 69.4749 63.0237 66.5639V44.7271Z" fill="#8A2A2B"/>
<path d="M0 40.6605H18.2973V0H5.27014C2.35967 0 0 2.3595 0 5.27014V40.6605Z" fill="#8A2A2B"/>
<path d="M22.3025 72.0924H40.455V0.000488281H22.3025V72.0924Z" fill="#8A2A2B"/>
<path d="M63.0237 40.6605H44.7263V0H57.7535C60.664 0 63.0237 2.3595 63.0237 5.27014V40.6605Z" fill="#8A2A2B"/>
<path d="M86.939 8.48451V10.734H81.3929V8.48451H86.939ZM77.6766 12.388H80.3453C80.4113 13.0864 80.5325 13.6745 80.7088 14.1523C80.8928 14.63 81.1682 14.9941 81.5361 15.2442C81.9106 15.4865 82.4146 15.6077 83.0464 15.6077C83.5614 15.6077 83.9988 15.4832 84.359 15.2331C84.7264 14.9831 85.0244 14.6228 85.2519 14.1523C85.4799 13.6819 85.6451 13.1195 85.7481 12.4653C85.8511 11.8036 85.9029 11.0685 85.9029 10.2599V8.94763C85.9029 8.26396 85.8622 7.64282 85.7812 7.08408C85.7079 6.51806 85.5939 6.02184 85.4397 5.59546C85.2849 5.16175 85.0905 4.79783 84.8553 4.50381C84.6201 4.20241 84.3403 3.97817 84.0169 3.83116C83.7008 3.67677 83.3406 3.5996 82.9363 3.5996C82.3265 3.5996 81.8412 3.7319 81.481 3.99657C81.1279 4.25385 80.8597 4.62873 80.6757 5.12132C80.4995 5.60647 80.3854 6.19457 80.3342 6.88562H77.6545C77.7498 5.80499 78.0038 4.84928 78.4152 4.0186C78.8272 3.18793 79.4039 2.53731 80.1464 2.06681C80.8966 1.58898 81.8264 1.3501 82.9363 1.3501C83.7966 1.3501 84.5722 1.53021 85.2629 1.89038C85.9613 2.24329 86.5567 2.75416 87.0497 3.42312C87.5421 4.08475 87.9167 4.88607 88.1744 5.82702C88.4388 6.76064 88.571 7.80817 88.571 8.96972V10.2599C88.571 11.414 88.4427 12.4616 88.1855 13.4025C87.9354 14.3364 87.5675 15.134 87.0827 15.7955C86.5975 16.457 86.0131 16.9643 85.3295 17.3168C84.6531 17.6699 83.8886 17.8462 83.0354 17.8462C81.9107 17.8462 80.9627 17.6148 80.1905 17.1516C79.4259 16.6812 78.8344 16.0346 78.4152 15.2111C77.9966 14.3805 77.7498 13.4393 77.6766 12.388ZM93.8313 1.57064V17.6259H91.1516V1.57064H93.8313ZM101.848 1.57064L96.4884 10.756H93.059L92.6735 8.28605H94.9891L98.5837 1.57064H101.848ZM99.0579 17.6259L95.0662 10.315L96.7864 8.15369L102.267 17.6259H99.0579ZM114.341 8.28605V11.0207C114.341 12.1528 114.209 13.1452 113.944 13.998C113.687 14.8509 113.312 15.5636 112.819 16.137C112.334 16.7032 111.746 17.1296 111.055 17.4165C110.372 17.703 109.607 17.8462 108.762 17.8462C107.924 17.8462 107.159 17.703 106.468 17.4165C105.784 17.1296 105.192 16.7032 104.693 16.137C104.2 15.5636 103.818 14.8509 103.546 13.998C103.281 13.1452 103.149 12.1528 103.149 11.0207V8.28605C103.149 7.13921 103.281 6.13575 103.546 5.27566C103.81 4.40825 104.189 3.6841 104.682 3.10338C105.181 2.5226 105.773 2.08521 106.457 1.79118C107.148 1.49711 107.909 1.3501 108.739 1.3501C109.585 1.3501 110.349 1.49711 111.033 1.79118C111.724 2.08521 112.316 2.5226 112.808 3.10338C113.301 3.6841 113.68 4.40825 113.944 5.27566C114.209 6.13575 114.341 7.13921 114.341 8.28605ZM111.684 11.0207V8.26397C111.684 7.448 111.617 6.74962 111.485 6.16885C111.36 5.58075 111.173 5.10292 110.923 4.73537C110.673 4.36043 110.364 4.08476 109.996 3.90833C109.636 3.72453 109.218 3.63265 108.739 3.63265C108.276 3.63265 107.861 3.72453 107.494 3.90833C107.133 4.08476 106.824 4.36043 106.567 4.73537C106.317 5.10292 106.126 5.58075 105.994 6.16885C105.869 6.74962 105.806 7.448 105.806 8.26397V11.0207C105.806 11.822 105.873 12.513 106.005 13.0938C106.137 13.6672 106.328 14.1377 106.578 14.505C106.835 14.8652 107.148 15.134 107.516 15.3102C107.883 15.4865 108.298 15.5746 108.762 15.5746C109.232 15.5746 109.651 15.4865 110.018 15.3102C110.386 15.134 110.691 14.8652 110.934 14.505C111.184 14.1377 111.371 13.6672 111.496 13.0938C111.621 12.513 111.684 11.822 111.684 11.0207ZM125.434 1.57064V3.82009H119.116V1.57064H125.434ZM127.518 1.57064V17.6259H124.85V1.57064H127.518ZM118.597 1.57064H121.255L120.947 9.56514C120.902 10.734 120.818 11.7632 120.693 12.6527C120.568 13.5349 120.395 14.292 120.174 14.9241C119.954 15.5565 119.671 16.0709 119.325 16.4681C118.987 16.8652 118.583 17.1593 118.113 17.3504C117.649 17.5339 117.112 17.6259 116.503 17.6259H115.841V15.3874L116.227 15.3433C116.536 15.3141 116.804 15.2221 117.032 15.0673C117.267 14.9131 117.462 14.6779 117.616 14.3618C117.778 14.0458 117.91 13.6415 118.013 13.1489C118.116 12.649 118.197 12.0425 118.256 11.3294C118.315 10.6164 118.355 9.78199 118.377 8.82634L118.597 1.57064ZM141.489 8.28605V11.0207C141.489 12.1528 141.357 13.1452 141.092 13.998C140.835 14.8509 140.461 15.5636 139.968 16.137C139.482 16.7032 138.895 17.1296 138.203 17.4165C137.52 17.703 136.755 17.8462 135.91 17.8462C135.072 17.8462 134.307 17.703 133.616 17.4165C132.933 17.1296 132.341 16.7032 131.841 16.137C131.349 15.5636 130.966 14.8509 130.694 13.998C130.429 13.1452 130.297 12.1528 130.297 11.0207V8.28605C130.297 7.13921 130.429 6.13575 130.694 5.27566C130.959 4.40825 131.338 3.6841 131.83 3.10338C132.33 2.5226 132.922 2.08521 133.605 1.79118C134.296 1.49711 135.057 1.3501 135.888 1.3501C136.733 1.3501 137.498 1.49711 138.181 1.79118C138.873 2.08521 139.464 2.5226 139.957 3.10338C140.449 3.6841 140.828 4.40825 141.092 5.27566C141.357 6.13575 141.489 7.13921 141.489 8.28605ZM138.832 11.0207V8.26397C138.832 7.448 138.766 6.74962 138.634 6.16885C138.509 5.58075 138.321 5.10292 138.071 4.73537C137.821 4.36043 137.513 4.08476 137.145 3.90833C136.784 3.72453 136.366 3.63265 135.888 3.63265C135.425 3.63265 135.009 3.72453 134.642 3.90833C134.282 4.08476 133.973 4.36043 133.715 4.73537C133.465 5.10292 133.274 5.58075 133.142 6.16885C133.017 6.74962 132.955 7.448 132.955 8.26397V11.0207C132.955 11.822 133.021 12.513 133.153 13.0938C133.285 13.6672 133.476 14.1377 133.726 14.505C133.984 14.8652 134.296 15.134 134.664 15.3102C135.031 15.4865 135.447 15.5746 135.91 15.5746C136.38 15.5746 136.799 15.4865 137.167 15.3102C137.535 15.134 137.84 14.8652 138.082 14.505C138.332 14.1377 138.52 13.6672 138.645 13.0938C138.77 12.513 138.832 11.822 138.832 11.0207ZM152.957 1.57064V3.82009H146.948V17.6259H144.268V1.57064H152.957ZM157.854 12.7409L163.444 1.57064H166.035V17.6259H163.411V6.5217L157.854 17.6259H155.24V1.57064H157.854V12.7409ZM168.759 1.57064H171.428V6.54379C171.428 7.30093 171.512 7.89272 171.681 8.3191C171.858 8.74548 172.122 9.04689 172.475 9.22331C172.828 9.39241 173.269 9.47696 173.798 9.47696C174.07 9.47696 174.361 9.46225 174.67 9.43284C174.986 9.40343 175.302 9.36299 175.618 9.31155C175.942 9.25272 176.247 9.18657 176.533 9.11304C176.827 9.03218 177.092 8.94763 177.327 8.85945V11.0979C177.099 11.1861 176.845 11.2707 176.566 11.3515C176.287 11.4324 175.993 11.5022 175.684 11.5611C175.382 11.6125 175.07 11.6529 174.747 11.6823C174.431 11.7044 174.114 11.7154 173.798 11.7154C172.769 11.7154 171.876 11.5427 171.119 11.1971C170.369 10.8443 169.788 10.2856 169.376 9.52102C168.965 8.7565 168.759 7.76411 168.759 6.54379V1.57064ZM176.753 1.57064H179.422V17.6259H176.753V1.57064ZM191.43 15.3874V17.6259H184.461V15.3874H191.43ZM185.167 1.57064V17.6259H182.488V1.57064H185.167ZM190.493 8.25295V10.4583H184.461V8.25295H190.493ZM191.364 1.57064V3.82009H184.461V1.57064H191.364ZM201.476 12.388H204.145C204.093 13.5495 203.858 14.5386 203.439 15.3543C203.02 16.1629 202.417 16.7804 201.631 17.2067C200.851 17.633 199.899 17.8462 198.774 17.8462C197.922 17.8462 197.157 17.6919 196.481 17.3835C195.812 17.0745 195.242 16.63 194.771 16.0489C194.301 15.4606 193.941 14.744 193.691 13.8987C193.448 13.0534 193.327 12.094 193.327 11.0207V8.17578C193.327 7.10247 193.452 6.14313 193.702 5.29775C193.96 4.45231 194.327 3.7356 194.805 3.1475C195.283 2.55934 195.863 2.11462 196.547 1.81322C197.238 1.50443 198.017 1.3501 198.885 1.3501C199.995 1.3501 200.928 1.56326 201.686 1.98964C202.443 2.41602 203.027 3.04086 203.439 3.86421C203.85 4.68756 204.09 5.69103 204.156 6.87461H201.487C201.451 6.07329 201.34 5.43374 201.156 4.95591C200.98 4.4707 200.708 4.1215 200.34 3.90833C199.98 3.69517 199.495 3.58853 198.885 3.58853C198.378 3.58853 197.94 3.6841 197.572 3.87523C197.212 4.06636 196.915 4.35311 196.679 4.73537C196.451 5.11025 196.278 5.58444 196.161 6.15784C196.051 6.7239 195.996 7.38917 195.996 8.15369V11.0207C195.996 11.7558 196.043 12.4064 196.139 12.9725C196.234 13.5385 196.389 14.02 196.602 14.4168C196.816 14.8068 197.098 15.1042 197.451 15.3102C197.804 15.5085 198.245 15.6077 198.774 15.6077C199.407 15.6077 199.91 15.5085 200.285 15.3102C200.667 15.112 200.95 14.7771 201.134 14.3067C201.318 13.8363 201.432 13.1967 201.476 12.388ZM209.239 1.57064V17.6259H206.559V1.57064H209.239ZM217.256 1.57064L211.897 10.756H208.467L208.081 8.28605H210.397L213.991 1.57064H217.256ZM214.466 17.6259L210.474 10.315L212.194 8.15369L217.675 17.6259H214.466ZM221.81 12.7409L227.4 1.57064H229.992V17.6259H227.367V6.5217L221.81 17.6259H219.197V1.57064H221.81V12.7409ZM242 15.3874V17.6259H235.031V15.3874H242ZM235.737 1.57064V17.6259H233.057V1.57064H235.737ZM241.063 8.25295V10.4583H235.031V8.25295H241.063ZM241.934 1.57064V3.82009H235.031V1.57064H241.934ZM88.9351 24.154V40.209H86.2665V26.4035H80.7975V40.209H78.1178V24.154H88.9351ZM97.3267 34.2542H93.9414V32.0157H97.3267C97.8781 32.0157 98.3226 31.8984 98.6608 31.6632C99.0061 31.428 99.2562 31.1047 99.4104 30.6927C99.5724 30.2812 99.6533 29.8142 99.6533 29.2925C99.6533 28.7924 99.5724 28.322 99.4104 27.8808C99.2562 27.4396 99.01 27.0832 98.6718 26.8111C98.3336 26.539 97.8852 26.4035 97.3267 26.4035H94.6911V40.209H92.0224V24.154H97.3267C98.3854 24.154 99.2892 24.3744 100.039 24.8156C100.789 25.2568 101.362 25.8632 101.76 26.6349C102.156 27.3994 102.355 28.278 102.355 29.2705C102.355 30.3066 102.156 31.1961 101.76 31.9386C101.362 32.6811 100.789 33.2545 100.039 33.6588C99.2892 34.0559 98.3854 34.2542 97.3267 34.2542ZM115.62 30.869V33.6037C115.62 34.7362 115.488 35.7282 115.223 36.5814C114.966 37.4341 114.591 38.1468 114.098 38.7202C113.614 39.2864 113.025 39.7128 112.334 39.9997C111.65 40.2861 110.886 40.4294 110.04 40.4294C109.203 40.4294 108.438 40.2861 107.747 39.9997C107.063 39.7128 106.472 39.2864 105.972 38.7202C105.479 38.1468 105.097 37.4341 104.825 36.5814C104.56 35.7282 104.428 34.7362 104.428 33.6037V30.869C104.428 29.7222 104.56 28.7192 104.825 27.8588C105.09 26.9913 105.468 26.2675 105.961 25.6864C106.461 25.1058 107.052 24.6685 107.736 24.3744C108.427 24.0802 109.188 23.9332 110.018 23.9332C110.864 23.9332 111.628 24.0802 112.312 24.3744C113.003 24.6685 113.595 25.1058 114.087 25.6864C114.58 26.2675 114.959 26.9913 115.223 27.8588C115.488 28.7192 115.62 29.7222 115.62 30.869ZM112.963 33.6037V30.8469C112.963 30.0312 112.896 29.3328 112.764 28.7522C112.639 28.1639 112.452 27.6858 112.202 27.3184C111.952 26.9439 111.643 26.6679 111.275 26.4917C110.916 26.3077 110.497 26.2157 110.018 26.2157C109.555 26.2157 109.14 26.3077 108.773 26.4917C108.412 26.6679 108.104 26.9439 107.846 27.3184C107.597 27.6858 107.405 28.1639 107.273 28.7522C107.148 29.3328 107.085 30.0312 107.085 30.8469V33.6037C107.085 34.4052 107.151 35.0964 107.284 35.677C107.416 36.2504 107.608 36.7208 107.857 37.0881C108.115 37.4484 108.427 37.7172 108.795 37.8934C109.162 38.0697 109.577 38.1578 110.04 38.1578C110.511 38.1578 110.93 38.0697 111.298 37.8934C111.665 37.7172 111.971 37.4484 112.213 37.0881C112.463 36.7208 112.65 36.2504 112.775 35.677C112.9 35.0964 112.963 34.4052 112.963 33.6037ZM127.276 37.9705V40.209H120.306V37.9705H127.276ZM121.013 24.154V40.209H118.333V24.154H121.013ZM126.338 30.8359V33.0414H120.306V30.8359H126.338ZM127.21 24.154V26.4035H120.306V24.154H127.21ZM132.227 24.154V40.209H129.547V24.154H132.227ZM140.244 24.154L134.884 33.3393H131.455L131.069 30.869H133.385L136.979 24.154H140.244ZM137.454 40.209L133.462 32.8981L135.182 30.7368L140.663 40.209H137.454ZM148.029 24.154V40.209H145.36V24.154H148.029ZM152.12 24.154V26.4035H141.313V24.154H152.12ZM156.221 30.2735H159.541C160.577 30.2735 161.467 30.4795 162.209 30.891C162.952 31.303 163.517 31.8764 163.907 32.6117C164.304 33.3465 164.503 34.2102 164.503 35.2027C164.503 35.9381 164.389 36.6106 164.161 37.2209C163.94 37.8306 163.613 38.36 163.179 38.8089C162.753 39.2572 162.235 39.6026 161.625 39.845C161.015 40.0879 160.32 40.209 159.541 40.209H154.314V24.154H156.982V37.9705H159.541C160.07 37.9705 160.5 37.8417 160.831 37.5844C161.169 37.32 161.419 36.978 161.581 36.5594C161.75 36.1325 161.834 35.6731 161.834 35.1807C161.834 34.6883 161.75 34.2432 161.581 33.8466C161.419 33.4423 161.169 33.1223 160.831 32.8871C160.5 32.6448 160.07 32.523 159.541 32.523H156.221V30.2735ZM168.274 24.154V40.209H165.606V24.154H168.274Z" fill="#8A2A2B"/>
</svg>
