<svg xmlns="http://www.w3.org/2000/svg" width="300" height="46" viewBox="0 0 300 46" fill="none">
    <path d="M78.3548 31.0325L78.6052 32.2607C78.0329 32.7812 77.2961 33.2044 76.409 33.5098C75.5148 33.822 74.5776 33.9747 73.6047 33.9747C72.7248 33.9747 71.8664 33.7318 71.0294 33.2391L70.779 30.0541H70.5286C69.4842 31.3656 68.2466 32.3856 66.8158 33.1212C65.3851 33.8567 63.9257 34.2245 62.4449 34.2245C60.1199 34.2245 58.3172 33.6694 57.0367 32.5591C55.7561 31.4488 55.1123 29.8806 55.1123 27.8543C55.1123 25.6962 56.0781 23.9753 58.0167 22.6777C59.9554 21.387 62.5236 20.7417 65.7285 20.7417C67.3452 20.7417 68.9477 20.825 70.5286 20.9846V17.9452C70.5286 15.8565 70.0422 14.2397 69.0621 13.1155C68.0821 11.9844 66.6656 11.4224 64.8128 11.4224C62.96 11.4224 61.4434 11.6652 60.1629 12.1579L59.6549 17.5497H56.6217C56.3857 17.2235 56.1997 16.8418 56.0637 16.3977C55.9278 15.9536 55.8634 15.5581 55.8634 15.1973C55.8634 14.1148 56.2712 13.1225 57.0796 12.2065C57.888 11.2905 58.9825 10.5619 60.3632 10.0276C61.7438 9.48631 63.2461 9.2157 64.8629 9.2157C67.9318 9.2157 70.2282 9.91654 71.7662 11.3252C73.2971 12.7338 74.0697 14.8087 74.0697 17.5566V31.0464H78.3691L78.3548 31.0325ZM67.0805 30.6369C68.3968 29.8875 69.5414 28.8744 70.5215 27.5976V22.9414H65.7213C63.4321 22.9414 61.6794 23.3439 60.4633 24.1419C59.2472 24.9468 58.6463 26.0987 58.6463 27.5976C58.6463 30.3802 60.1772 31.768 63.2461 31.768C64.4909 31.768 65.7714 31.3933 67.0877 30.6369H67.0805Z" fill="#8A2A2B" />
    <path d="M80.3574 44.2728C80.6936 44.0091 81.223 43.7384 81.9527 43.4609C82.6752 43.1833 83.4979 42.9613 84.4064 42.8017V12.3942C83.734 12.2624 83.0472 12.068 82.3605 11.8043C81.6666 11.5407 81.0871 11.2492 80.615 10.9231L80.8654 9.69485H87.4397L87.69 13.3726H87.9404C88.8847 12.1305 90.0794 11.1243 91.5316 10.3541C92.9767 9.58383 94.4789 9.20215 96.0313 9.20215C98.0844 9.20215 99.9158 9.6879 101.518 10.6455C103.121 11.6101 104.373 13.0187 105.288 14.8645C106.197 16.7104 106.655 18.9101 106.655 21.4637C106.655 24.0173 106.147 26.2517 105.138 28.1808C104.129 30.1099 102.763 31.5949 101.046 32.6427C99.3292 33.6905 97.4048 34.211 95.2802 34.211C93.828 34.211 92.4973 33.9473 91.2884 33.4268C90.0794 32.9064 89.0492 32.1847 88.2051 31.2688H87.9547V42.7947C88.8633 42.9613 89.6788 43.1764 90.4085 43.454C91.131 43.7315 91.6604 44.0021 92.0037 44.2658L91.7534 45.4941H80.6293L80.3789 44.2658L80.3574 44.2728ZM99.0144 30.5887C100.195 29.8046 101.132 28.6458 101.819 27.1053C102.513 25.5717 102.856 23.6912 102.856 21.4637C102.856 18.23 102.162 15.7805 100.781 14.129C99.4007 12.4775 97.4764 11.6517 95.0155 11.6517C93.6634 11.6517 92.3471 12.075 91.0451 12.9285C89.7503 13.782 88.713 14.7396 87.9332 15.8221V25.3843C87.9332 27.2509 88.5842 28.7776 89.8791 29.9711C91.1739 31.1646 92.8908 31.7614 95.0083 31.7614C96.4891 31.7614 97.8197 31.3659 99.0001 30.5817L99.0144 30.5887Z" fill="#8A2A2B" />
    <path d="M110.354 32.5035C110.826 32.1774 111.406 31.8859 112.1 31.6222C112.794 31.3585 113.473 31.1643 114.146 31.0324V12.3938C113.473 12.262 112.786 12.0676 112.1 11.804C111.406 11.5403 110.826 11.2488 110.354 10.9227L110.605 9.69446H120.97L121.221 10.9227C120.784 11.2488 120.241 11.5472 119.604 11.804C118.96 12.0676 118.323 12.262 117.68 12.3938V31.2753H127.287V12.3938C126.643 12.262 126.007 12.0676 125.363 11.804C124.719 11.5403 124.182 11.2488 123.746 10.9227L123.996 9.69446H134.105L134.355 10.9227C133.919 11.2488 133.375 11.5472 132.738 11.804C132.094 12.0676 131.458 12.262 130.814 12.3938V31.2753H140.421V12.3938C139.778 12.262 139.141 12.0676 138.497 11.804C137.853 11.5403 137.317 11.2488 136.88 10.9227L137.131 9.69446H147.496L147.747 10.9227C147.275 11.2488 146.695 11.5472 146.001 11.804C145.307 12.0676 144.628 12.262 143.955 12.3938V31.0324C144.628 31.1643 145.315 31.3585 146.001 31.6222C146.695 31.8859 147.275 32.1774 147.747 32.5035L147.496 33.7318H110.59L110.34 32.5035H110.354Z" fill="#8A2A2B" />
    <path d="M152.097 44.2728C152.433 44.0091 152.962 43.7384 153.692 43.4609C154.415 43.1833 155.237 42.9613 156.146 42.8017V12.3942C155.473 12.2624 154.787 12.068 154.1 11.8043C153.406 11.5407 152.826 11.2492 152.354 10.9231L152.605 9.69485H159.179L159.429 13.3726H159.68C160.624 12.1305 161.819 11.1243 163.271 10.3541C164.716 9.58383 166.218 9.20215 167.771 9.20215C169.824 9.20215 171.655 9.6879 173.257 10.6455C174.86 11.6101 176.112 13.0187 177.028 14.8645C177.936 16.7104 178.394 18.9101 178.394 21.4637C178.394 24.0173 177.886 26.2517 176.877 28.1808C175.869 30.1099 174.502 31.5949 172.785 32.6427C171.068 33.6905 169.144 34.211 167.019 34.211C165.567 34.211 164.237 33.9473 163.028 33.4268C161.819 32.9064 160.788 32.1847 159.944 31.2688H159.694V42.7947C160.603 42.9613 161.418 43.1764 162.148 43.454C162.87 43.7315 163.4 44.0021 163.743 44.2658L163.493 45.4941H152.369L152.118 44.2658L152.097 44.2728ZM170.747 30.5887C171.927 29.8046 172.864 28.6458 173.551 27.1053C174.245 25.5717 174.588 23.6912 174.588 21.4637C174.588 18.23 173.894 15.7805 172.513 14.129C171.133 12.4775 169.208 11.6517 166.748 11.6517C165.396 11.6517 164.079 12.075 162.777 12.9285C161.482 13.782 160.445 14.7396 159.665 15.8221V25.3843C159.665 27.2509 160.316 28.7776 161.611 29.9711C162.906 31.1646 164.623 31.7614 166.74 31.7614C168.221 31.7614 169.552 31.3659 170.732 30.5817L170.747 30.5887Z" fill="#8A2A2B" />
    <path d="M207.366 9.70117L207.616 10.9294C206.944 11.5192 206.014 12.005 204.834 12.4005L194.468 41.3369C193.896 42.9398 193.237 44.1125 192.493 44.8689C191.749 45.6183 190.626 46 189.11 46C187.829 46 186.735 45.7571 185.826 45.2645V42.0794H191.435L194.418 33.7454H193.051L184.61 12.4144C183.501 12.0535 182.571 11.5678 181.827 10.9433L182.078 9.71506H191.027L191.277 10.9433C190.669 11.436 189.711 11.9217 188.394 12.4144L195.469 30.5603H195.72L202.037 12.4144C200.72 11.9217 199.762 11.436 199.154 10.9433L199.404 9.71506H207.345L207.366 9.70117Z" fill="#8A2A2B" />
    <path d="M212.467 9.70117H234.715L234.465 17.5494H232.948C231.904 15.5578 231.281 13.6773 231.081 11.9078H225.365V31.0322C226.037 31.164 226.731 31.3583 227.44 31.622C228.148 31.8857 228.72 32.1772 229.157 32.5033L228.906 33.7315H218.29L218.04 32.5033C218.476 32.1772 219.048 31.8857 219.756 31.622C220.465 31.3583 221.151 31.164 221.831 31.0322V11.9078H216.115C215.915 13.6704 215.293 15.5509 214.248 17.5494H212.731L212.481 9.70117H212.467Z" fill="#8A2A2B" />
    <path d="M3.7271 34.2172C3.06895 34.2172 2.38935 34.0714 1.68829 33.773C0.987218 33.4747 0.422071 33.0999 0 32.6489L0.915679 29.1029H7.10367C8.79196 27.0142 10.3515 24.3704 11.7822 21.1923C13.213 18.0072 14.6294 13.7813 16.0387 8.50057L17.448 3.31698C15.8527 3.28922 8.90642 1.92913 8.24828 1.47808L8.74189 0.111084H23.0065L24.9022 28.9642H25.1812L44.0313 0.111084H48.8816L43.3231 27.6735C42.851 29.9912 43.273 31.15 44.5893 31.15C45.1974 31.15 45.7626 30.9349 46.2776 30.5047C46.7927 30.0744 47.4938 29.2418 48.388 28.0135L49.8617 28.9711C48.8315 30.928 47.8014 32.295 46.7641 33.0652C45.7339 33.8355 44.5607 34.2241 43.2444 34.2241C41.6492 34.2241 40.5117 33.6204 39.8321 32.4129C39.1525 31.2055 39.0452 29.3528 39.5173 26.8547L43.738 5.84285H43.5234L25.31 33.5371H22.0765L20.1092 5.84285H18.4925L20.9533 2.01936L19.0576 8.70179C17.3693 14.6625 15.7168 19.5061 14.1 23.2324C12.4833 26.9588 10.8308 29.7275 9.1425 31.5178C7.45421 33.315 5.65146 34.2102 3.7271 34.2102V34.2172Z" fill="#8A2A2B" />
    <path d="M276.729 34.7236L257.736 5.79419H257.486V31.3512C258.079 31.4761 258.702 31.6843 259.353 31.9549C259.996 32.2255 260.54 32.51 260.969 32.8015L260.719 34.2518H251.276L251.026 32.8015C251.491 32.51 252.034 32.2325 252.664 31.9549C253.293 31.6843 253.909 31.483 254.502 31.3512V3.38628C253.909 3.26137 253.286 3.06014 252.635 2.78257C251.991 2.51195 251.448 2.22746 251.019 1.93601L251.269 0.485708H258.129L276.128 27.9232H276.379V3.37938C275.785 3.21977 275.162 3.01158 274.511 2.75483C273.868 2.49808 273.324 2.22746 272.895 1.93601L273.145 0.485708H282.588L282.838 1.93601C282.409 2.22746 281.873 2.49808 281.222 2.75483C280.578 3.01158 279.955 3.21977 279.355 3.37938V34.2379L276.722 34.7236H276.729ZM292.045 16.3972C290.586 16.3972 289.241 16.0434 288.018 15.3356C286.794 14.6278 285.829 13.6632 285.135 12.4419C284.441 11.2206 284.09 9.88831 284.09 8.43802C284.09 6.76568 284.419 5.29458 285.085 4.02471C285.75 2.75484 286.68 1.76947 287.896 1.06167C289.105 0.353876 290.486 0 292.045 0C293.605 0 294.885 0.353876 296.094 1.06167C297.303 1.76947 298.255 2.734 298.956 3.9553C299.65 5.17659 300 6.50893 300 7.95921C300 9.63156 299.671 11.1027 299.006 12.3725C298.341 13.6424 297.418 14.6278 296.223 15.3356C295.028 16.0434 293.641 16.3972 292.045 16.3972ZM284.834 22.4274V20.0195H299.249V22.4274H284.834ZM292.045 14.2322C293.369 14.2322 294.449 13.6632 295.279 12.5183C296.109 11.3802 296.524 9.93686 296.524 8.20207C296.524 6.46727 296.109 5.03089 295.279 3.88592C294.449 2.7479 293.376 2.17192 292.045 2.17192C290.715 2.17192 289.642 2.74096 288.812 3.88592C287.982 5.02395 287.567 6.46727 287.567 8.20207C287.567 9.93686 287.982 11.3733 288.812 12.5183C289.642 13.6563 290.715 14.2322 292.045 14.2322Z" fill="#8A2A2B" />
</svg>