<svg xmlns="http://www.w3.org/2000/svg" width="21" height="61" viewBox="0 0 21 61" fill="none">
    <path d="M20.6562 10.1874C20.6561 8.26576 20.1108 6.38356 19.0836 4.75945C18.0564 3.13534 16.5895 1.83598 14.8533 1.01228C13.1171 0.188589 11.1829 -0.125634 9.2752 0.106111C7.36755 0.337857 5.56479 1.10606 4.07631 2.32149C2.58784 3.53693 1.47473 5.14971 0.86628 6.97252C0.25783 8.79533 0.179008 10.7534 0.638969 12.6192C1.09893 14.485 2.0788 16.182 3.46476 17.5132C4.85072 18.8443 6.5859 19.755 8.46875 20.1393V56.0886C8.46902 56.6283 8.57647 57.1625 8.78487 57.6603L10.0633 60.7072C10.1061 60.7856 10.1693 60.851 10.2461 60.8966C10.323 60.9421 10.4107 60.9662 10.5 60.9662C10.5893 60.9662 10.677 60.9421 10.7539 60.8966C10.8307 60.851 10.8939 60.7856 10.9367 60.7072L12.2151 57.6603C12.4235 57.1625 12.531 56.6283 12.5313 56.0886V20.1393C14.8236 19.6682 16.8835 18.4211 18.3635 16.6083C19.8436 14.7954 20.6533 12.5277 20.6562 10.1874ZM13.5469 10.1874C12.9443 10.1874 12.3552 10.0087 11.8541 9.67394C11.3531 9.33915 10.9625 8.86329 10.7319 8.30655C10.5013 7.74981 10.441 7.13718 10.5585 6.54614C10.6761 5.95511 10.9663 5.41221 11.3924 4.98609C11.8185 4.55998 12.3614 4.26979 12.9525 4.15223C13.5435 4.03467 14.1561 4.095 14.7129 4.32561C15.2696 4.55623 15.7455 4.94675 16.0803 5.44781C16.4151 5.94886 16.5938 6.53794 16.5938 7.14056C16.5938 7.94864 16.2727 8.72363 15.7013 9.29503C15.1299 9.86643 14.355 10.1874 13.5469 10.1874Z" fill="#8A2A2B" />
</svg>