<svg xmlns="http://www.w3.org/2000/svg" width="105" height="47" viewBox="0 0 105 47" fill="none">
    <path d="M4.44197 34.2603C3.80091 34.2603 3.14024 34.1098 2.45667 33.8155C1.76983 33.5178 1.22363 33.1417 0.811523 32.6838L1.70115 29.1221H7.729C9.37415 27.0223 10.8917 24.373 12.285 21.1743C13.6783 17.9789 15.0586 13.7303 16.429 8.42852L17.7994 3.22161C16.2426 3.19544 9.4788 1.82831 8.83775 1.37041L9.31854 0H23.2124L25.0636 28.9814H25.3383L43.6998 0H48.426L43.013 27.6797C42.5551 30.0084 42.9672 31.1728 44.246 31.1728C44.838 31.1728 45.3875 30.9569 45.8912 30.5219C46.3949 30.0869 47.0784 29.2562 47.9452 28.0198L49.3843 28.9782C48.3802 30.9438 47.3728 32.3142 46.3687 33.0894C45.3646 33.8645 44.2199 34.2537 42.9443 34.2537C41.3907 34.2537 40.282 33.6487 39.6213 32.4385C38.9574 31.2284 38.856 29.3674 39.3139 26.8555L43.4251 5.75311H43.2191L25.4724 33.5702H22.3195L20.3996 5.75311H18.8231L21.2205 1.91661L19.3693 8.6313C17.7242 14.6166 16.115 19.4801 14.5385 23.225C12.9621 26.97 11.3529 29.7468 9.70775 31.5489C8.0626 33.3543 6.30298 34.2537 4.43215 34.2537L4.44197 34.2603Z" fill="#939393" />
    <path d="M80.2858 34.7639L61.8425 5.7956H61.6005V31.3853C62.8891 31.7091 64.0142 32.1899 64.9791 32.8342L64.7371 34.2831H55.5628L55.3208 32.8342C56.2856 32.1899 57.414 31.7091 58.6994 31.3853V3.38184C57.4108 3.06131 56.2856 2.57726 55.3208 1.93293L55.5628 0.484024H62.2252L79.7037 27.9544H79.9457V3.37857C78.657 3.05804 77.5319 2.57398 76.5671 1.92966L76.8091 0.480755H85.9834L86.2254 1.92966C85.2605 2.57398 84.1321 3.05804 82.8468 3.37857V34.2766L80.2891 34.7607L80.2858 34.7639ZM91.2458 15.3558C90.0553 14.6493 89.1232 13.6812 88.4462 12.458C87.7691 11.2347 87.4323 9.90029 87.4323 8.45138C87.4323 5.9395 88.1387 3.90515 89.5549 2.34504C90.9711 0.784927 92.8387 0.00323486 95.1543 0.00323486C96.6032 0.00323486 97.9148 0.356467 99.0889 1.0662C100.263 1.77594 101.189 2.74079 101.866 3.96402C102.543 5.18725 102.88 6.52168 102.88 7.97059C102.88 10.4825 102.17 12.5168 100.757 14.0769C99.3408 15.637 97.4732 16.4187 95.1576 16.4187C93.7414 16.4187 92.4364 16.0655 91.2458 15.3558ZM102.157 22.4531H88.1551V20.0394H102.157V22.4531ZM98.2942 12.5299C99.0988 11.3884 99.501 9.94608 99.501 8.20935C99.501 6.47262 99.0988 5.03026 98.2942 3.88879C97.4896 2.74733 96.443 2.17496 95.1576 2.17496C93.8722 2.17496 92.8223 2.74733 92.021 3.88879C91.2164 5.03026 90.8141 6.47262 90.8141 8.20935C90.8141 9.94608 91.2164 11.3884 92.021 12.5299C92.8256 13.6714 93.8722 14.2437 95.1576 14.2437C96.443 14.2437 97.4896 13.6714 98.2942 12.5299Z" fill="#939393" />
    <path d="M0.00326887 45.7665V41.0992H3.48981V45.7665H2.87492V41.6781H0.614888V45.7665H0H0.00326887Z" fill="#939393" />
    <path d="M5.06968 45.7665V41.0992H8.04926V41.6716H5.68129V45.1941H8.11467V45.7665H5.06641H5.06968ZM5.46543 43.6504V43.0845H7.80069V43.6504H5.46543Z" fill="#939393" />
    <path d="M9.42564 45.7665V41.0992H10.9988C11.2834 41.0992 11.5418 41.1647 11.7773 41.2955C12.0095 41.4263 12.1959 41.6062 12.33 41.8319C12.4641 42.0575 12.5328 42.3061 12.5328 42.5776C12.5328 42.849 12.4641 43.1042 12.33 43.3298C12.1926 43.5555 12.0095 43.7354 11.7773 43.8662C11.545 43.9971 11.2834 44.0625 10.9988 44.0625H9.92605V43.4836H10.9923C11.1656 43.4836 11.3226 43.4443 11.4665 43.3658C11.6104 43.2873 11.7184 43.1794 11.8001 43.042C11.8819 42.9047 11.9212 42.7477 11.9212 42.5743C11.9212 42.401 11.8819 42.2505 11.8001 42.1132C11.7216 41.9758 11.6104 41.8678 11.4665 41.7894C11.3226 41.7109 11.1656 41.6716 10.9923 41.6716H10.0373V45.76H9.42236L9.42564 45.7665Z" fill="#939393" />
    <path d="M13.8352 45.7665V41.0992H15.5948C15.863 41.0992 16.1017 41.1548 16.3111 41.2628C16.5236 41.3707 16.6839 41.5179 16.7984 41.7043C16.9129 41.8875 16.9685 42.0935 16.9685 42.3225C16.9685 42.5122 16.9292 42.679 16.8507 42.8163C16.7722 42.9537 16.6774 43.0616 16.5629 43.1401C16.4484 43.2186 16.3372 43.271 16.226 43.3037V43.2513C16.347 43.2775 16.4779 43.3364 16.6218 43.4247C16.7657 43.513 16.89 43.6438 16.9946 43.8139C17.0993 43.984 17.1516 44.19 17.1516 44.4321C17.1516 44.6872 17.0895 44.9161 16.9652 45.1189C16.8409 45.3217 16.6643 45.4819 16.4386 45.5997C16.2129 45.7142 15.9546 45.773 15.6635 45.773H13.8286L13.8352 45.7665ZM15.634 45.2203C15.8106 45.2203 15.9709 45.1843 16.1083 45.1124C16.2456 45.0404 16.3536 44.9423 16.4288 44.818C16.504 44.6937 16.5433 44.5498 16.5433 44.3928C16.5433 44.2358 16.504 44.0984 16.4288 43.9709C16.3536 43.8466 16.2456 43.7485 16.1083 43.6765C15.9709 43.6046 15.8139 43.5686 15.634 43.5686H14.3127V43.042H15.5588C15.7191 43.042 15.8597 43.0126 15.9774 42.9504C16.0952 42.8883 16.19 42.8098 16.2555 42.7051C16.3209 42.6005 16.3536 42.4762 16.3536 42.3356C16.3536 42.1295 16.2816 41.9627 16.1377 41.8351C15.9938 41.7076 15.8008 41.6422 15.5621 41.6422H14.4468V45.217H15.634V45.2203Z" fill="#939393" />
    <path d="M20.3696 45.8384C19.9771 45.8384 19.6141 45.7338 19.2772 45.5212C18.9403 45.3086 18.6689 45.0207 18.4694 44.6512C18.2699 44.2816 18.1685 43.876 18.1685 43.4312C18.1685 42.9864 18.2699 42.5808 18.4694 42.2112C18.6689 41.8417 18.9371 41.5506 19.2772 41.3412C19.6174 41.1319 19.9804 41.024 20.3696 41.024C20.7588 41.024 21.1251 41.1286 21.462 41.3412C21.7989 41.5538 22.0704 41.8417 22.2699 42.2112C22.4694 42.5808 22.5708 42.9864 22.5708 43.4312C22.5708 43.876 22.4694 44.2816 22.2699 44.6512C22.0704 45.0207 21.8022 45.3118 21.462 45.5212C21.1251 45.7338 20.7588 45.8384 20.3696 45.8384ZM20.3696 45.2595C20.6509 45.2595 20.9126 45.181 21.1579 45.0273C21.4032 44.8703 21.5961 44.6544 21.74 44.3732C21.8839 44.0919 21.9559 43.7812 21.9559 43.4312C21.9559 43.0812 21.8839 42.7705 21.74 42.4893C21.5961 42.208 21.3999 41.9921 21.1579 41.8351C20.9126 41.6781 20.6509 41.6029 20.3696 41.6029C20.0883 41.6029 19.8267 41.6814 19.5814 41.8351C19.3361 41.9921 19.1431 42.208 18.9992 42.4893C18.8553 42.7705 18.7833 43.0812 18.7833 43.4312C18.7833 43.7812 18.8553 44.0919 18.9992 44.3732C19.1431 44.6544 19.3394 44.8703 19.5814 45.0273C19.8267 45.1843 20.0883 45.2595 20.3696 45.2595Z" fill="#939393" />
    <path d="M23.8661 45.7665V41.0992H26.8456V41.6716H24.4777V45.1941H26.9111V45.7665H23.8628H23.8661ZM24.2586 43.6504V43.0845H26.5938V43.6504H24.2586Z" fill="#939393" />
    <path d="M31.1336 45.7665V41.6781H29.7207V41.0992H33.1615V41.6781H31.7485V45.7665H31.1336Z" fill="#939393" />
    <path d="M34.2899 45.7665V41.0992H35.8631C36.1476 41.0992 36.406 41.1647 36.6415 41.2955C36.8737 41.4263 37.0602 41.6062 37.1943 41.8319C37.3284 42.0575 37.397 42.3061 37.397 42.5776C37.397 42.849 37.3284 43.1042 37.1943 43.3298C37.0569 43.5555 36.8737 43.7354 36.6415 43.8662C36.4093 43.9971 36.1476 44.0625 35.8631 44.0625H34.7903V43.4836H35.8565C36.0299 43.4836 36.1869 43.4443 36.3308 43.3658C36.4747 43.2873 36.5826 43.1794 36.6644 43.042C36.7462 42.9047 36.7854 42.7477 36.7854 42.5743C36.7854 42.401 36.7462 42.2505 36.6644 42.1132C36.5859 41.9758 36.4747 41.8678 36.3308 41.7894C36.1869 41.7109 36.0299 41.6716 35.8565 41.6716H34.9015V45.76H34.2866L34.2899 45.7665Z" fill="#939393" />
    <path d="M37.757 45.7665L39.5166 41.0992H40.1021L41.8617 45.7665H41.2076L40.7072 44.3993L40.6548 44.2522L39.7063 41.6912H39.8797L38.9312 44.2522L38.8789 44.3993L38.3785 45.7665H37.7505H37.757ZM38.6238 44.6446L38.8429 44.0788H40.7824L41.0015 44.6446H38.6205H38.6238Z" fill="#939393" />
    <path d="M42.8979 45.7665V41.0992H43.4769L45.2725 45.1222H45.0337L46.8358 41.0992H47.3886V45.7665H46.7868V42.244H46.9012L45.3215 45.7665H44.9617L43.382 42.244H43.5096V45.7665H42.9012H42.8979Z" fill="#939393" />
    <path d="M48.9616 45.7665V41.0992H50.7212C50.9894 41.0992 51.2282 41.1548 51.4375 41.2628C51.6501 41.3707 51.8104 41.5179 51.9249 41.7043C52.0393 41.8875 52.0949 42.0935 52.0949 42.3225C52.0949 42.5122 52.0557 42.679 51.9772 42.8163C51.8987 42.9537 51.8038 43.0616 51.6894 43.1401C51.5749 43.2186 51.4637 43.271 51.3525 43.3037V43.2513C51.4735 43.2775 51.6043 43.3364 51.7482 43.4247C51.8921 43.513 52.0164 43.6438 52.1211 43.8139C52.2257 43.984 52.2781 44.19 52.2781 44.4321C52.2781 44.6872 52.2159 44.9161 52.0917 45.1189C51.9674 45.3217 51.7908 45.4819 51.5651 45.5997C51.3394 45.7142 51.081 45.773 50.7899 45.773H48.9551L48.9616 45.7665ZM50.7605 45.2203C50.9371 45.2203 51.0974 45.1843 51.2347 45.1124C51.3721 45.0404 51.48 44.9423 51.5553 44.818C51.6305 44.6937 51.6697 44.5498 51.6697 44.3928C51.6697 44.2358 51.6305 44.0984 51.5553 43.9709C51.48 43.8466 51.3721 43.7485 51.2347 43.6765C51.0974 43.6046 50.9404 43.5686 50.7605 43.5686H49.4391V43.042H50.6853C50.8455 43.042 50.9862 43.0126 51.1039 42.9504C51.2217 42.8883 51.3165 42.8098 51.3819 42.7051C51.4473 42.6005 51.48 42.4762 51.48 42.3356C51.48 42.1295 51.4081 41.9627 51.2642 41.8351C51.1203 41.7076 50.9273 41.6422 50.6885 41.6422H49.5732V45.217H50.7605V45.2203Z" fill="#939393" />
    <path d="M53.0339 45.7665L54.7935 41.0992H55.379L57.1386 45.7665H56.4844L55.984 44.3993L55.9317 44.2522L54.9832 41.6912H55.1566L54.2081 44.2522L54.1557 44.3993L53.6553 45.7665H53.0273H53.0339ZM53.9006 44.6446L54.1197 44.0788H56.0593L56.2784 44.6446H53.8973H53.9006Z" fill="#939393" />
    <path d="M58.1787 45.7665V41.0992H58.7871V44.9128H58.6726L61.155 41.0992H61.7339V45.7665H61.1256V41.9529H61.2401L58.7576 45.7665H58.1787ZM59.9972 40.6969C59.801 40.6969 59.6342 40.6577 59.4903 40.5792C59.3463 40.5007 59.2384 40.3993 59.1566 40.2685C59.0749 40.1377 59.0291 39.997 59.016 39.84H59.4706C59.487 39.9774 59.5393 40.0853 59.6243 40.1671C59.7094 40.2489 59.8337 40.2881 59.9972 40.2881C60.1607 40.2881 60.2818 40.2489 60.3668 40.1671C60.4551 40.0886 60.5042 39.9774 60.5238 39.84H60.9784C60.9653 39.997 60.9195 40.1377 60.8378 40.2685C60.756 40.396 60.6448 40.5007 60.5009 40.5792C60.357 40.6577 60.1869 40.6969 59.9972 40.6969Z" fill="#939393" />
    <path d="M63.3071 45.7665V41.0992H63.922V45.7665H63.3071ZM63.8075 43.6733V43.0944H66.2965V43.6733H63.8075ZM66.1788 45.7665V41.0992H66.7937V45.7665H66.1788Z" fill="#939393" />
    <path d="M70.2964 45.8384C69.9039 45.8384 69.5408 45.7338 69.204 45.5212C68.8671 45.3086 68.5956 45.0207 68.3961 44.6512C68.1966 44.2816 68.0952 43.876 68.0952 43.4312C68.0952 42.9864 68.1966 42.5808 68.3961 42.2112C68.5956 41.8417 68.8638 41.5506 69.204 41.3412C69.5441 41.1319 69.9072 41.024 70.2964 41.024C70.6856 41.024 71.0519 41.1286 71.3888 41.3412C71.7257 41.5538 71.9971 41.8417 72.1966 42.2112C72.3961 42.5808 72.4975 42.9864 72.4975 43.4312C72.4975 43.876 72.3961 44.2816 72.1966 44.6512C71.9971 45.0207 71.7289 45.3118 71.3888 45.5212C71.0519 45.7338 70.6856 45.8384 70.2964 45.8384ZM70.2964 45.2595C70.5776 45.2595 70.8393 45.181 71.0846 45.0273C71.3299 44.8703 71.5229 44.6544 71.6668 44.3732C71.8107 44.0919 71.8826 43.7812 71.8826 43.4312C71.8826 43.0812 71.8107 42.7705 71.6668 42.4893C71.5229 42.208 71.3266 41.9921 71.0846 41.8351C70.8393 41.6781 70.5776 41.6029 70.2964 41.6029C70.0151 41.6029 69.7534 41.6814 69.5081 41.8351C69.2628 41.9921 69.0699 42.208 68.926 42.4893C68.782 42.7705 68.7101 43.0812 68.7101 43.4312C68.7101 43.7812 68.782 44.0919 68.926 44.3732C69.0699 44.6544 69.2661 44.8703 69.5081 45.0273C69.7534 45.1843 70.0151 45.2595 70.2964 45.2595Z" fill="#939393" />
    <path d="M73.7894 45.7665V41.0992H76.769V41.6716H74.401V45.1941H76.8344V45.7665H73.7861H73.7894ZM74.1819 43.6504V43.0845H76.5171V43.6504H74.1819Z" fill="#939393" />
    <path d="M80.0918 45.7665V41.0992H80.6707L82.4663 45.1222H82.2275L84.0297 41.0992H84.5824V45.7665H83.9806V42.244H84.0951L82.5154 45.7665H82.1556L80.5758 42.244H80.7034V45.7665H80.0951H80.0918Z" fill="#939393" />
    <path d="M86.1527 45.7665V41.0992H89.1323V41.6716H86.7643V45.1941H89.1977V45.7665H86.1494H86.1527ZM86.5484 43.6504V43.0845H88.8837V43.6504H86.5484Z" fill="#939393" />
    <path d="M89.9627 46.7674V45.2007H93.1974V41.6651H91.3103L91.5686 41.4656L91.343 44.334C91.3266 44.5695 91.2808 44.7624 91.2121 44.9129C91.1435 45.0633 91.065 45.1745 90.9832 45.2465H90.2179C90.3422 45.1745 90.4533 45.0666 90.5547 44.9227C90.6561 44.7788 90.715 44.5793 90.7379 44.3242L91.0061 41.096H93.8123V45.1974H94.3912V46.7641H93.7763V45.7633H90.5744V46.7641H89.9595L89.9627 46.7674Z" fill="#939393" />
    <path d="M95.543 45.7665V41.0992H96.1513V44.9128H96.0368L98.5193 41.0992H99.0982V45.7665H98.4898V41.9529H98.6043L96.1219 45.7665H95.543Z" fill="#939393" />
    <path d="M100.131 45.7665L101.891 41.0992H102.476L104.236 45.7665H103.582L103.081 44.3993L103.029 44.2522L102.08 41.6912H102.254L101.305 44.2522L101.253 44.3993L100.752 45.7665H100.125H100.131ZM100.998 44.6446L101.217 44.0788H103.156L103.376 44.6446H100.995H100.998Z" fill="#939393" />
</svg>