<svg xmlns="http://www.w3.org/2000/svg" width="54" height="42" viewBox="0 0 54 42" fill="none">
        <path d="M1.88012 36.7402C3.68012 34.5802 5.30012 32.2402 6.74012 29.7202C8.30012 27.0802 9.38012 24.7402 9.98012 22.7002L0.620117 10.8202C1.10012 7.58019 2.36012 5.0002 4.40012 3.0802C6.44012 1.1602 8.96012 0.200195 11.9601 0.200195C15.2001 0.200195 17.9601 1.34019 20.2401 3.62019C22.5201 5.90019 23.6601 8.78019 23.6601 12.2602C23.6601 17.3002 22.1001 22.4002 18.9801 27.5602C15.8601 32.7202 11.8401 37.4602 6.92012 41.7802L1.88012 36.7402ZM32.1201 36.7402C33.9201 34.5802 35.5401 32.2402 36.9801 29.7202C38.5401 27.0802 39.6201 24.7402 40.2201 22.7002L30.8601 10.8202C31.3401 7.58019 32.6001 5.0002 34.6401 3.0802C36.6801 1.1602 39.2001 0.200195 42.2001 0.200195C45.4401 0.200195 48.2001 1.34019 50.4801 3.62019C52.7601 5.90019 53.9001 8.78019 53.9001 12.2602C53.9001 17.3002 52.3401 22.4002 49.2201 27.5602C46.1001 32.7202 42.0801 37.4602 37.1601 41.7802L32.1201 36.7402Z" fill="#8A2A2B" />
</svg>