<svg width="269" height="73" viewBox="0 0 269 73" fill="none" xmlns="http://www.w3.org/2000/svg">
<path d="M0.070013 0.090275C18.4364 -0.103874 36.8287 0.0722792 55.1972 0.0939005C55.3472 12.1084 55.21 24.1431 55.2113 36.1595V49.1402C55.2108 51.6959 55.3201 54.3064 55.1195 56.8537C54.9935 58.4551 54.7755 59.8781 54.0395 61.3251C52.8744 63.6166 51.0299 64.7506 48.6513 65.5284C45.0714 66.3765 41.2072 65.9193 37.5475 66.5792C33.4306 67.3212 30.0807 68.7645 27.6431 72.267C20.3112 62.4372 8.25014 69.0887 2.57642 63.3112C1.30053 62.0121 0.488619 60.0236 0.223633 58.2407C-0.120118 55.9276 0.0345455 53.4454 0.0355887 51.108L0.0452395 39.5084L0.070013 0.090275Z" fill="#8A2A2B"/>
<path d="M1.50862 1.74658L53.7478 1.75326L53.7541 37.2977C53.7551 43.3102 54.0621 49.4766 53.6967 55.469C53.6099 56.8939 53.4643 58.4214 52.8592 59.7302C51.9748 61.6427 50.423 62.6263 48.5097 63.332C46.1496 63.9749 43.6507 63.8479 41.2278 63.9632C36.475 64.1891 30.9995 64.8325 27.6324 68.5368C21.1875 61.2341 8.35756 66.3319 3.6405 61.5744C2.5417 60.466 1.86932 58.706 1.6625 57.1787C1.35996 54.9464 1.48671 52.5946 1.48723 50.343L1.4948 39.4186L1.50862 1.74658Z" fill="#F1F2F2"/>
<path d="M33.1809 12.6325C32.4113 11.2202 31.8072 9.92214 32.2663 8.285C32.3351 8.03913 32.4546 7.83168 32.6032 7.62658C33.0148 8.71495 32.659 10.7093 33.5176 11.5277C33.7855 11.4928 33.8134 11.4886 33.9874 11.2674C34.6386 10.4399 35.2833 8.66933 35.161 7.61458C35.0431 6.59702 34.1045 5.95808 33.9733 4.97766C34.3622 5.21145 34.7448 5.41546 35.161 5.59568L35.3817 5.45873C35.4273 4.88238 35.3796 4.32951 35.3287 3.75606L35.4583 3.67383C36.4163 5.79856 36.0386 8.56751 35.2338 10.696C34.6501 12.24 33.6577 13.5399 32.3675 14.5638C31.9674 14.8917 31.6831 15.1413 31.1755 15.2852C30.1049 15.9675 29.0317 16.5721 27.9021 17.1493C28.6185 17.046 29.3736 16.8407 30.0413 17.2027L30.3188 17.5387C30.2397 18.1933 29.825 18.638 29.3115 19.0472C28.5716 19.6369 27.688 19.6716 26.7835 19.6979C26.7391 20.6934 26.6731 21.6621 26.4713 22.6407C26.0206 24.8237 24.3686 28.9453 26.098 30.8495C27.0526 31.9008 28.5588 32.0391 29.89 32.0829C33.051 32.1872 37.2089 30.9802 39.8635 31.3516C40.9268 31.5002 42.1474 32.0278 43.1346 32.4485C44.4793 33.0213 45.9636 33.9054 46.9672 34.9802C47.2421 35.2742 47.439 35.5535 47.5666 35.9359C47.2372 36.301 46.7797 36.2958 46.2954 36.3195C45.9428 36.337 45.5781 36.1948 45.2443 36.2147C45.1914 38.9143 44.7133 41.5238 45.1314 44.2151C45.9965 45.3436 47.19 46.0796 48.2035 47.0504C48.4239 49.2715 48.5804 51.5424 49.0104 53.7332C49.2759 55.0845 49.9757 56.7505 50.0631 58.0752C50.0774 58.294 49.8184 58.6127 49.688 58.7729C49.6494 58.8203 49.61 58.8673 49.5704 58.9137C49.4687 59.5415 49.693 60.3518 49.2102 60.7214C48.5819 60.7895 48.0175 60.8176 47.3845 60.7561L47.2413 60.5433C47.4093 59.9382 47.8712 59.5592 48.2924 59.1216L48.3412 59.0718C47.5702 53.5282 47.5676 50.1721 42.7679 46.5475C42.2609 46.1647 41.7499 45.7878 41.2473 45.3992C40.0786 44.3523 38.8486 43.3795 37.4736 42.6189C36.5065 42.8203 35.6034 43.097 34.6741 43.4303C31.5913 44.4905 27.2714 43.1434 26.3518 43.5592C24.6771 44.316 24.4354 52.0961 24.4414 53.9246C24.446 55.3109 24.8347 57.5838 24.3717 58.8438C24.1915 58.8996 23.9935 58.9518 23.8284 59.0441C23.3199 59.3289 23.6514 59.9843 23.5063 60.543C22.86 60.8849 21.5427 60.699 20.7988 60.6841C21.2894 59.8537 22.2242 59.1951 22.6003 58.3548C23.4195 56.5242 22.7943 48.0485 22.219 46.0622C21.7516 44.4488 20.6906 42.843 20.0954 41.2197C19.9893 40.716 19.3795 40.6691 18.9703 40.2401C18.1991 39.4313 17.5635 38.3953 17.0045 37.4282C16.3069 35.7283 15.7965 34.1947 16.13 32.3364C16.6039 29.6988 18.554 27.8908 19.6982 25.5733C20.0967 24.766 20.1919 23.142 20.8554 22.6892C20.8745 22.6761 20.8938 22.6636 20.9131 22.6508L20.8497 22.4657C20.0811 21.8035 18.3373 22.0134 17.3423 21.5275C16.9412 21.3317 16.5854 20.9916 16.4454 20.5607C15.6363 18.071 20.4833 18.7319 21.4 17.0423C20.6082 16.4782 19.4724 16.7685 18.6816 16.2098C18.3973 16.009 18.0752 15.7456 18.0079 15.3914C18.7011 15.5442 19.5289 16.0771 20.229 15.9237C20.8703 14.6084 17.5489 12.7314 17.4482 11.1438C17.7912 11.5345 18.2265 12.192 18.7496 12.3078L18.9129 12.0076C18.9356 10.9996 18.8373 10.2098 18.2536 9.34486L18.5514 8.96872C19.0214 8.76565 19.0475 8.69413 19.2389 8.21033C19.6823 7.08904 20.187 4.8859 21.4196 4.38105C21.4433 4.37142 21.4676 4.36383 21.4916 4.3552C21.2707 5.1512 20.7287 5.78138 20.4003 6.53129C19.3492 8.93223 19.3941 11.8143 20.6804 14.1139C21.2871 15.1986 22.2328 16.0909 23.4537 16.4255C23.8866 16.5442 24.2058 16.5575 24.6278 16.4054C24.8923 16.0698 24.9372 15.9555 24.8918 15.5273C24.8075 14.7339 24.1451 13.2811 24.6816 12.5415C25.2233 13.604 24.9846 15.3546 26.338 15.7941C26.9522 15.9933 27.7787 15.9161 28.3455 15.612C28.5625 15.4957 28.6039 15.3171 28.7067 15.1048C28.4326 12.8083 26.978 12.2603 27.8489 9.49884L28.0247 9.34301C28.2197 10.8386 27.876 13.0295 29.2687 14.0638C29.7077 14.3899 30.2147 14.436 30.7428 14.3505C31.6844 14.1982 32.5427 13.2989 33.1809 12.6325Z" fill="#8A2A2B"/>
<path d="M34.9101 43.8099C35.6166 43.5533 36.332 43.4573 37.0719 43.3496C38.3554 43.8462 40.0142 44.5994 41.0045 45.5777C41.0167 46.7217 41.5908 47.7041 42.0767 48.7085C40.8008 50.306 39.5343 51.9384 38.5085 53.7114C37.2023 55.9693 36.4233 58.5928 34.5191 60.4628C33.9662 61.0058 32.3718 60.7975 31.6003 60.7902C32.292 59.8551 32.9853 59.3779 33.9868 58.8262C35.253 56.2705 37.744 53.4871 38.0907 50.6138C38.3298 48.6308 36.1234 45.3495 34.9101 43.8099Z" fill="#8A2A2B"/>
<path d="M17.0052 37.4282C17.5641 38.3953 18.1997 39.4313 18.9709 40.24C19.3801 40.6691 19.9899 40.716 20.0961 41.2197L19.7526 41.7684L19.6185 41.8819C16.7183 42.5107 13.5768 41.3365 10.6865 41.0248C9.85212 41.8007 8.73245 42.8849 8.21682 43.8964C7.62843 45.0507 7.77292 46.4972 6.86973 47.3441C6.88512 47.7953 6.94171 48.0529 7.20409 48.428L7.27425 48.5263C7.14228 49.1914 6.4433 49.8179 6.00018 50.3452C5.58575 49.8771 5.22504 49.4274 4.90163 48.8883C4.603 46.8548 7.26564 42.8177 8.27864 40.933C8.68889 40.1699 9.10333 39.2404 10 38.9772L10.1049 38.9475C12.3197 38.2952 14.9385 39.0607 16.8419 37.538L17.0052 37.4282Z" fill="#8A2A2B"/>
<path d="M17.0046 37.4282C17.5635 38.3953 18.1991 39.4313 18.9703 40.24C19.3795 40.6691 19.9893 40.716 20.0955 41.2197L19.752 41.7684C18.6245 40.4132 17.6204 39.1269 16.8413 37.538L17.0046 37.4282Z" fill="#8A2A2B"/>
<path d="M32.3682 14.564C32.4052 14.5694 32.4423 14.5757 32.4796 14.5804C33.2244 14.6701 33.7682 13.9104 34.3225 14.01C34.2421 14.4432 34.1177 14.6469 33.7432 14.9015C33.0677 15.3608 31.9579 15.3613 31.1763 15.2854C31.6838 15.1414 31.9681 14.8918 32.3682 14.564Z" fill="#8A2A2B"/>
<path d="M18.2541 9.34503C18.2362 9.33997 18.2171 9.33742 18.1999 9.32988C17.8535 9.17751 17.63 8.65226 17.5265 8.31978C17.3478 7.74625 17.2315 7.10246 17.5247 6.5529L17.7818 6.48877C17.7758 7.52516 17.8838 8.12336 18.552 8.96889L18.2541 9.34503Z" fill="#8A2A2B"/>
<path d="M197.682 16.773L208.299 16.7681C208.272 20.5472 208.019 24.4858 208.356 28.2443C208.754 28.7375 209.328 28.3549 209.859 28.6963C210.356 30.2998 209.999 32.8495 209.977 34.5484L206.5 34.5576L206.493 31.6834C203.38 31.644 200.261 31.686 197.147 31.6889L197.153 34.5495L193.704 34.5555L193.702 28.5518C194.472 28.5161 195.475 28.6272 196.095 28.0928C197.29 27.0631 197.526 18.7521 197.682 16.773Z" fill="#8A2A2B"/>
<path d="M200.981 19.9116L204.783 19.914C204.783 21.4389 205.198 27.428 204.547 28.4412L203.947 28.5252L199.885 28.5263C200.713 25.8566 200.661 22.6932 200.981 19.9116Z" fill="#F1F2F2"/>
<path d="M183.334 16.6056C187.529 15.6614 191.696 18.2912 192.646 22.4819C193.596 26.6729 190.971 30.841 186.779 31.7963C182.579 32.7533 178.399 30.1232 177.447 25.9244C176.495 21.7258 179.132 17.5515 183.334 16.6056Z" fill="#8A2A2B"/>
<path d="M184.778 19.895C185.629 19.9065 186.468 20.0698 187.197 20.5238C188.139 21.1112 188.777 22.0798 189.011 23.1565C189.273 24.3638 189.072 25.6655 188.391 26.7035C187.617 27.884 186.637 28.2752 185.322 28.5454C184.394 28.5188 183.453 28.3323 182.688 27.7781C181.779 27.1195 181.198 26.1269 181.015 25.0276C180.813 23.8189 181.056 22.5501 181.779 21.5507C182.558 20.4748 183.527 20.1029 184.778 19.895Z" fill="#F1F2F2"/>
<path d="M75.4081 40.8916C78.1488 40.304 80.994 41.2335 82.8588 43.3253C84.7236 45.417 85.3201 48.3485 84.4213 51.002C83.5223 53.6555 81.2665 55.6221 78.5139 56.1515C74.32 56.9582 70.2581 54.24 69.4068 50.0574C68.5556 45.8745 71.2323 41.7865 75.4081 40.8916Z" fill="#8A2A2B"/>
<path d="M76.6618 44.1836C77.5175 44.1854 78.4536 44.3531 79.1805 44.8215C80.1204 45.4316 80.7761 46.3929 81.0007 47.4902C81.2584 48.691 81.0664 49.9898 80.3857 51.0226C79.639 52.1556 78.6933 52.5518 77.4317 52.8209C76.539 52.822 75.6738 52.7002 74.9039 52.2205C73.9248 51.6108 73.2762 50.6092 73.0409 49.4914C72.7913 48.3039 73.0003 47.0082 73.6765 45.9931C74.4209 44.8755 75.4057 44.4444 76.6618 44.1836Z" fill="#F1F2F2"/>
<path d="M153.112 16.611C157.295 15.6666 161.454 18.2789 162.418 22.4548C163.382 26.6309 160.787 30.8 156.613 31.7822C152.412 32.7704 148.208 30.1568 147.238 25.9541C146.268 21.7511 148.902 17.5611 153.112 16.611Z" fill="#8A2A2B"/>
<path d="M154.461 19.8998C155.272 19.8904 156.177 20.0409 156.878 20.4634C157.857 21.055 158.549 22.0223 158.792 23.1389C159.063 24.3318 158.879 25.621 158.215 26.6567C157.462 27.8317 156.478 28.2537 155.179 28.5335C154.28 28.5437 153.309 28.3601 152.56 27.8429C151.623 27.1966 151.011 26.2136 150.806 25.0991C150.584 23.891 150.819 22.5977 151.535 21.5891C152.292 20.5242 153.232 20.1257 154.461 19.8998Z" fill="#F1F2F2"/>
<path d="M101.079 16.7689L105.257 16.7632C105.985 18.0686 106.72 19.3703 107.461 20.6683C107.888 21.407 108.422 22.5553 109.294 22.7882L109.606 22.5217C110.333 20.9383 110.014 18.5038 109.993 16.7666L113.468 16.7702C113.445 17.916 113.41 19.0669 113.431 20.2124C113.448 21.1349 113.472 22.1529 114.166 22.8182L114.479 22.7692C115.827 21.8472 117.402 18.2928 118.246 16.7702L122.484 16.7731L118.125 23.9851C118.892 25.2435 122.456 30.6778 122.442 31.6757L118.308 31.6856C117.432 30.1337 116.587 28.5373 115.63 27.034C115.243 26.4247 114.888 25.8003 114.152 25.6366C114.068 25.6892 114.001 25.7417 113.932 25.8139C113.067 26.7111 113.445 30.4063 113.462 31.6793L109.997 31.695C110.012 30.2036 110.373 27.3128 109.639 26.0163C109.488 25.751 109.4 25.7516 109.114 25.672C107.861 26.3574 106.016 30.3215 105.241 31.6903L100.879 31.683C102.307 29.0733 103.902 26.5306 105.421 23.9713C103.948 21.5874 102.524 19.17 101.079 16.7689Z" fill="#8A2A2B"/>
<path d="M86.8958 41.0371L97.5865 41.0382L97.58 44.2042C95.6106 44.2068 92.9644 43.8721 91.0881 44.1783C90.6974 44.242 90.6064 44.4334 90.391 44.7271C90.3443 45.2158 90.3365 45.3583 90.5415 45.805C91.9963 46.2993 93.5627 46.0434 95.0368 46.395C96.5188 46.7486 97.3505 47.722 98.1009 48.9611C98.3074 49.6891 98.4396 50.4191 98.4378 51.177C98.4352 52.3934 98.0977 53.5076 97.2097 54.3839C94.8686 56.6947 89.9132 55.9624 86.8948 55.9386L86.8958 41.0371Z" fill="#8A2A2B"/>
<path d="M90.407 49.2211C91.6185 49.1934 93.0399 49.0547 94.139 49.6512C94.5004 49.8476 94.7255 50.1519 94.8314 50.5413C95.0223 51.2445 94.6906 51.8216 94.3528 52.4116C93.1437 52.9697 91.7108 52.8273 90.408 52.8185L90.407 49.2211Z" fill="#F1F2F2"/>
<path d="M261.794 16.8003C264.167 16.6521 266.616 16.7705 269 16.7682L268.997 31.6809L265.448 31.6945C265.471 30.5375 265.56 29.3242 265.456 28.1727C265.39 27.4696 265.294 26.9135 264.738 26.4553L264.284 26.5137C263.617 26.8702 263.346 27.4545 262.988 28.0877L260.855 31.6856L257.206 31.6791C258.119 29.7986 259.384 27.9737 260.456 26.1728C260.216 26.038 259.981 25.8943 259.749 25.7414C258.575 24.9731 257.754 23.8685 257.475 22.4745C257.235 21.2609 257.441 19.9339 258.135 18.8975C259.037 17.548 260.263 17.101 261.794 16.8003Z" fill="#8A2A2B"/>
<path d="M262.495 19.9232L265.443 19.9097C265.422 20.9412 265.766 22.3269 265.21 23.2215C264.66 23.5204 264.23 23.4471 263.617 23.4439C263.158 23.4364 262.652 23.4429 262.219 23.2783C261.676 23.0728 261.272 22.5979 261.056 22.0708C260.907 21.7101 260.92 21.3032 261.09 20.9527C261.374 20.3598 261.901 20.1157 262.495 19.9232Z" fill="#F1F2F2"/>
<path d="M95.7257 16.7696L98.9308 16.7683L98.9269 31.6821L95.4232 31.6941L95.401 22.9423C93.3228 25.8869 91.1529 28.7748 89.028 31.6863L85.8396 31.6816L85.8443 16.7696L89.3833 16.7681C89.3697 19.6587 89.3726 22.5492 89.3916 25.4398C91.4559 22.5195 93.6149 19.6571 95.7257 16.7696Z" fill="#8A2A2B"/>
<path d="M120.987 41.0352L124.974 41.0357L130.837 55.9362L127.114 55.9403C126.778 54.9954 126.487 53.8275 125.929 52.9971C125.826 52.8429 125.603 52.8557 125.424 52.8218L120.014 52.8231L118.867 55.9424L115.114 55.9385L120.987 41.0352Z" fill="#8A2A2B"/>
<path d="M122.889 45.1582C123.654 45.8559 124.329 48.3607 124.603 49.3985C124.29 49.695 123.853 49.61 123.429 49.6233C122.994 49.6444 122.373 49.7396 121.956 49.6317C121.759 49.5808 121.602 49.4715 121.521 49.2853C121.192 48.5344 122.549 46.0178 122.889 45.1582Z" fill="#F1F2F2"/>
<path d="M246.009 16.7715L249.999 16.7632C252.099 21.6631 253.946 26.715 255.907 31.6749L252.159 31.6965C251.859 30.8236 251.564 29.4948 251.001 28.7658C250.821 28.535 250.644 28.5681 250.372 28.5329L245.039 28.5324L243.876 31.6866L240.177 31.6864C241.687 26.9732 244.157 21.4907 246.009 16.7715Z" fill="#8A2A2B"/>
<path d="M247.916 20.8594C248.487 21.2798 249.1 23.1071 249.335 23.8585C249.465 24.2852 249.687 24.9077 249.471 25.3206L248.74 25.3892L246.203 25.3727L247.916 20.8594Z" fill="#F1F2F2"/>
<path d="M164.593 16.7686C167.371 16.7577 171.841 16.1312 174.25 17.719C175.255 18.3812 175.886 19.406 176.119 20.5762C176.396 21.9687 176.169 23.5837 175.364 24.7717C174.402 26.1907 173.246 26.6164 171.628 26.9286C170.472 26.9789 169.311 26.9813 168.154 27.006L168.159 31.6876L164.587 31.6866L164.593 16.7686Z" fill="#8A2A2B"/>
<path d="M168.175 19.9074C169.409 19.881 170.759 19.7517 171.87 20.3899C172.241 20.6027 172.524 20.9097 172.621 21.335C172.785 22.0601 172.409 22.8285 172.033 23.4205C170.88 24.0165 169.422 23.8602 168.157 23.8508L168.175 19.9074Z" fill="#F1F2F2"/>
<path d="M79.0648 16.7688L82.5959 16.7686L82.5926 31.6873L79.0627 31.6863L79.0562 25.7762L73.3679 25.7721L73.3666 31.6823L69.9121 31.6857L69.9178 16.7688H73.3705L73.3687 22.6155L79.0593 22.6196L79.0648 16.7688Z" fill="#8A2A2B"/>
<path d="M102.946 41.0337L113.567 41.0371L113.564 55.9368L109.997 55.9451L109.992 44.2109C108.73 44.1856 107.458 44.2193 106.194 44.2253C106.001 47.0235 106.206 52.3005 104.362 54.5227C103.153 55.978 101.56 56.1269 99.8028 56.2855L99.7986 52.902C100.298 52.843 101.052 52.7987 101.451 52.4685C102.611 51.5105 102.819 42.9389 102.946 41.0337Z" fill="#8A2A2B"/>
<path d="M160.357 41.0347L163.821 41.0386L163.817 46.0076C165.973 45.9799 168.296 45.9653 170.121 47.2788C171.112 47.9921 171.807 49.0226 171.995 50.2406C172.229 51.7609 171.534 53.2756 170.651 54.4616C167.956 56.6748 163.624 55.9573 160.358 55.9443L160.357 41.0347Z" fill="#8A2A2B"/>
<path d="M163.824 49.222C165.058 49.1938 166.441 49.0608 167.575 49.6307C167.935 49.8117 168.194 50.0785 168.307 50.4718C168.516 51.1937 168.171 51.8095 167.824 52.4135C166.597 52.9808 165.14 52.8285 163.818 52.8165L163.824 49.222Z" fill="#F1F2F2"/>
<path d="M235.264 16.769L239.447 16.7711L235.115 23.9573L238.305 29.3791L239.64 31.6857L235.287 31.6954C234.468 30.2491 232.684 26.2013 231.255 25.6742L230.924 25.9306C230.188 27.5312 230.512 29.933 230.535 31.6815L226.996 31.6862L227.012 16.7693L230.538 16.7698C230.517 18.0791 230.123 21.6911 231.07 22.6624C231.174 22.769 231.359 22.7234 231.506 22.7226C232.794 21.8778 234.45 18.2155 235.264 16.769Z" fill="#8A2A2B"/>
<path d="M124.17 16.7678L134.489 16.7676L134.487 19.9088L127.615 19.9169L127.626 22.6168L134.036 22.6265L134.032 25.7747L127.777 25.769C127.432 26.4393 127.615 27.764 127.631 28.5276L134.615 28.5237L134.611 31.6806L124.159 31.6879L124.17 16.7678Z" fill="#8A2A2B"/>
<path d="M137.072 40.9275C138.778 40.7879 140.492 40.8028 142.089 41.5028C143.988 42.3348 144.928 43.7103 145.652 45.584L142.218 46.5428C141.897 45.8931 141.479 45.3506 140.906 44.9085C140.137 44.3154 139.295 43.9626 138.308 44.1117C137.229 44.2747 136.273 44.9396 135.637 45.8094C134.85 46.8855 134.622 48.278 134.823 49.5781C134.974 50.5556 135.378 51.4614 136.208 52.0477C137.115 52.6888 138.496 52.917 139.587 52.7021C140.796 52.464 141.47 51.7296 142.107 50.7552L142.249 50.5765C143.254 50.5035 144.688 51.1445 145.667 51.4374C145.453 51.9489 145.251 52.4786 144.981 52.9637C144.166 54.4284 142.733 55.3867 141.144 55.8298C139.013 56.4239 136.712 56.3339 134.76 55.2286C133.071 54.255 131.845 52.6429 131.357 50.7559C130.802 48.6804 131.018 46.2723 132.11 44.4028C133.24 42.465 134.955 41.4927 137.072 40.9275Z" fill="#8A2A2B"/>
<path d="M216.503 16.6366C218.196 16.4884 219.857 16.4835 221.454 17.1509C223.402 17.9664 224.372 19.3743 225.154 21.26C224.028 21.6301 222.857 21.9188 221.717 22.2448C221.42 21.7169 221.094 21.1726 220.619 20.7858C219.818 20.1312 218.762 19.7488 217.724 19.8806C216.702 20.0104 215.791 20.5897 215.165 21.3946C214.378 22.4039 214.06 23.7411 214.224 25.0032C214.361 26.0608 214.852 27.0232 215.716 27.6684C216.532 28.2756 217.706 28.6757 218.715 28.5106C219.967 28.3061 220.835 27.5438 221.563 26.561L221.72 26.2739C222.737 26.2034 224.187 26.8333 225.183 27.1186C224.969 27.6233 224.755 28.1439 224.489 28.6233C223.689 30.0609 222.205 31.1132 220.642 31.5605C218.582 32.1507 216.175 31.9872 214.288 30.9414C212.601 29.9959 211.364 28.4125 210.855 26.5469C210.274 24.4886 210.472 22.0829 211.531 20.2089C212.655 18.2181 214.357 17.2367 216.503 16.6366Z" fill="#8A2A2B"/>
<path d="M146.757 41.0369L158.681 41.0366L158.674 44.2081L154.499 44.2175L154.5 51.6546L154.502 55.9363L150.955 55.9452L150.951 44.2094L146.757 44.2191V41.0369Z" fill="#8A2A2B"/>
<path d="M137.145 16.7676L146.602 16.7697L146.601 19.9049L140.605 19.9145L140.604 25.5554L140.605 31.6798L137.147 31.6944L137.145 16.7676Z" fill="#8A2A2B"/>
</svg>
